<?xml version="1.0" encoding="utf-8"?>
<!-- Generator: Adobe Illustrator 22.1.0, SVG Export Plug-In . SVG Version: 6.00 Build 0)  -->
<svg version="1.1" id="Слой_1" xmlns="http://www.w3.org/2000/svg" xmlns:xlink="http://www.w3.org/1999/xlink" x="0px" y="0px"
	 viewBox="0 0 100 100" style="enable-background:new 0 0 100 100;" xml:space="preserve">
<style type="text/css">
	.st0{display:none;}
	.st1{display:inline;fill:#698CC8;}
	.st2{display:none;fill:#FFFFFF;}
	.st3{display:none;fill:#FF00FF;}
	.st4{display:none;fill:#00FF00;}
	.st5{fill:#FFFFFF;}
</style>
<g class="st0">
	<path class="st1" d="M75,100H25C11.3,100,0,88.8,0,75V25C0,11.3,11.3,0,25,0h50c13.8,0,25,11.3,25,25v50C100,88.8,88.8,100,75,100z
		"/>
</g>
<rect x="43.8" y="18.8" class="st2" width="12.5" height="62.5"/>
<rect x="43.8" y="18.8" transform="matrix(6.123234e-17 -1 1 6.123234e-17 2.273737e-13 100)" class="st2" width="12.5" height="62.5"/>
<circle class="st2" cx="50" cy="50" r="40"/>
<circle class="st3" cx="50" cy="50" r="30"/>
<rect x="45" y="5.5" class="st4" width="10" height="89"/>
<g>
	<path class="st5" d="M28.8,28.8c5.7-5.7,13.1-8.6,20.6-8.8l-1,5.2l13.5-7.7L52.2,5.4l-0.9,4.6c-10.7-0.4-21.4,3.5-29.6,11.7
		C7.3,36.2,6.2,58.8,18.4,74.5l7.2-7.2C17.2,55.7,18.3,39.3,28.8,28.8z"/>
	<path class="st5" d="M78.3,78.3c14.4-14.4,15.5-37.1,3.3-52.8l-7.2,7.2c8.4,11.7,7.3,28.1-3.2,38.6C65.5,77,58.1,79.9,50.6,80
		l1-5.2l-13.5,7.7l9.7,12.1l0.9-4.6C59.3,90.4,70.1,86.5,78.3,78.3z"/>
</g>
</svg>
